<svg width="734" height="640" viewBox="0 0 734 640" fill="none" xmlns="http://www.w3.org/2000/svg" xmlns:xlink="http://www.w3.org/1999/xlink">
<rect width="734" height="640" fill="url(#pattern0)"/>
<defs>
<pattern id="pattern0" patternContentUnits="objectBoundingBox" width="1" height="1">
<use xlink:href="#image0" transform="translate(-0.00408719) scale(0.0013624 0.0015625)"/>
</pattern>
<image id="image0" width="740" height="640" xlink:href="img/home.png"/>
</defs>
<path d="M227 531.645L447.039 539.568L516 526V547.49L447.736 567L227 556.106V531.645Z" fill="#3595F6" fill-opacity="0.75"/>
<path d="M228 530V505L447.54 508.3L517 505V525L447.939 538L228 530Z" fill="#3595F6" fill-opacity="0.75"/>
<path d="M228 503.833V478H448.238H517V501.767L449.234 509L228 503.833Z" fill="#3595F6" fill-opacity="0.75"/>
<path d="M228 479V453.739L448.534 450L516 456.77V479H448.235" fill="#3595F6" fill-opacity="0.75"/>
<path d="M228 453.028V427.269L448.736 424L517 434.898V456L448.238 449.362L228 453.028Z" fill="#3595F6" fill-opacity="0.75"/>
<path d="M227 426.569V402.494L447.243 390L518 413.363V435L447.243 422.506L227 426.569Z" fill="#3595F6" fill-opacity="0.75"/>
<path d="M227 403.886V378.531L448.439 362L518 391.006V412L447.941 389.992L227 403.886Z" fill="#3595F6" fill-opacity="0.75"/>
<path d="M227 378.853V353.548L448.738 333L518 370.047V391L446.247 361.949L227 378.853Z" fill="#3595F6" fill-opacity="0.75"/>
<path d="M227 351.922V327.813L449.236 303L518 347.201V369L448.937 330.826L227 351.922Z" fill="#3595F6" fill-opacity="0.75"/>
<path d="M227 327.921V303.82L448.738 275L518 326.213V347L447.941 304.523L227 327.921Z" fill="#3595F6" fill-opacity="0.75"/>
<path d="M226 303V279L447.541 246L518 305.3V325L448.239 274.3L226 303Z" fill="#3595F6" fill-opacity="0.75"/>
<path d="M227 277.694V253.412L447.44 218L517 282.753V304L448.536 245.014L227 277.694Z" fill="#3595F6" fill-opacity="0.75"/>
<path d="M227 253V228L448.536 190L517 260.3V281L448.237 217L227 253Z" fill="#3595F6" fill-opacity="0.75"/>
<path d="M227 227.578V202.259L447.041 158L517 238.01V261L448.237 186.763L227 227.578Z" fill="#3595F6" fill-opacity="0.75"/>
<path d="M228 203.352V177.889L447.241 129L517 215.574V239L446.544 158.231L228 203.352Z" fill="#3595F6" fill-opacity="0.75"/>
<path d="M227 178V153L446.045 101L517 193.3V216L447.54 129.7L227 178Z" fill="#3595F6" fill-opacity="0.75"/>
<path d="M227 152.576V126.301L448.237 69L517 171.778V193L447.938 100.328L227 152.576Z" fill="#3595F6" fill-opacity="0.75"/>
</svg>
