<svg display="none" xmlns="http://www.w3.org/2000/svg">

    <symbol id="facebook" viewBox="0 0 20 20">
        <path d="M11.25 6.875V4.375C11.25 3.685 11.81 3.125 12.5 3.125H13.75V0H11.25C9.17875 0 7.5 1.67875 7.5 3.75V6.875H5V10H7.5V20H11.25V10H13.75L15 6.875H11.25Z"/>
    </symbol>

    <symbol id="instagram" viewBox="0 0 20 20">
        <path d="M13.75 0H6.25C2.79875 0 0 2.79875 0 6.25V13.75C0 17.2013 2.79875 20 6.25 20H13.75C17.2013 20 20 17.2013 20 13.75V6.25C20 2.79875 17.2013 0 13.75 0ZM18.125 13.75C18.125 16.1625 16.1625 18.125 13.75 18.125H6.25C3.8375 18.125 1.875 16.1625 1.875 13.75V6.25C1.875 3.8375 3.8375 1.875 6.25 1.875H13.75C16.1625 1.875 18.125 3.8375 18.125 6.25V13.75Z"/>
        <path d="M10 5C7.23875 5 5 7.23875 5 10C5 12.7613 7.23875 15 10 15C12.7613 15 15 12.7613 15 10C15 7.23875 12.7613 5 10 5ZM10 13.125C8.2775 13.125 6.875 11.7225 6.875 10C6.875 8.27625 8.2775 6.875 10 6.875C11.7225 6.875 13.125 8.27625 13.125 10C13.125 11.7225 11.7225 13.125 10 13.125Z"/>
        <path d="M15.375 5.29124C15.7429 5.29124 16.0412 4.99295 16.0412 4.62499C16.0412 4.25703 15.7429 3.95874 15.375 3.95874C15.007 3.95874 14.7087 4.25703 14.7087 4.62499C14.7087 4.99295 15.007 5.29124 15.375 5.29124Z"/>
    </symbol>

    <symbol id="twitter" viewBox="0 0 20 20">
        <g clip-path="url(#clip0)">
            <path d="M20 3.79875C19.2563 4.125 18.4637 4.34125 17.6375 4.44625C18.4875 3.93875 19.1363 3.14125 19.4412 2.18C18.6488 2.6525 17.7738 2.98625 16.8412 3.1725C16.0887 2.37125 15.0162 1.875 13.8462 1.875C11.5763 1.875 9.74875 3.7175 9.74875 5.97625C9.74875 6.30125 9.77625 6.61375 9.84375 6.91125C6.435 6.745 3.41875 5.11125 1.3925 2.6225C1.03875 3.23625 0.83125 3.93875 0.83125 4.695C0.83125 6.115 1.5625 7.37375 2.6525 8.1025C1.99375 8.09 1.3475 7.89875 0.8 7.5975C0.8 7.61 0.8 7.62625 0.8 7.6425C0.8 9.635 2.22125 11.29 4.085 11.6712C3.75125 11.7625 3.3875 11.8062 3.01 11.8062C2.7475 11.8062 2.4825 11.7913 2.23375 11.7362C2.765 13.36 4.2725 14.5538 6.065 14.5925C4.67 15.6838 2.89875 16.3412 0.98125 16.3412C0.645 16.3412 0.3225 16.3263 0 16.285C1.81625 17.4563 3.96875 18.125 6.29 18.125C13.835 18.125 17.96 11.875 17.96 6.4575C17.96 6.27625 17.9538 6.10125 17.945 5.9275C18.7588 5.35 19.4425 4.62875 20 3.79875Z"/>
        </g>
    </symbol>

    <symbol id="youtube" viewBox="0 0 20 20">
        <path d="M19.15 4.45C18.6075 3.485 18.0188 3.3075 16.82 3.24C15.6225 3.15875 12.6112 3.125 10.0025 3.125C7.38875 3.125 4.37625 3.15875 3.18 3.23875C1.98375 3.3075 1.39375 3.48375 0.84625 4.45C0.2875 5.41375 0 7.07375 0 9.99625C0 9.99875 0 10 0 10C0 10.0025 0 10.0038 0 10.0038V10.0063C0 12.9163 0.2875 14.5887 0.84625 15.5425C1.39375 16.5075 1.9825 16.6825 3.17875 16.7638C4.37625 16.8338 7.38875 16.875 10.0025 16.875C12.6112 16.875 15.6225 16.8337 16.8212 16.765C18.02 16.6837 18.6087 16.5088 19.1513 15.5438C19.715 14.59 20 12.9175 20 10.0075C20 10.0075 20 10.0038 20 10.0013C20 10.0013 20 9.99875 20 9.9975C20 7.07375 19.715 5.41375 19.15 4.45ZM7.5 13.75V6.25L13.75 10L7.5 13.75Z"/>
    </symbol>

    <symbol id="logo" viewBox="0 0 121 33">
        <path d="M15.17 5.904V28.987H18.204V0.286999H13.735L9.184 23.206L4.469 0.286999H0V28.987H2.788V6.109L7.544 28.946H10.619L15.17 5.904Z"/>
        <path d="M24.6999 12.997V3.198H33.3099V0.286999H21.5019V28.987H33.3099V26.076H24.6999V15.867H31.7109V12.997H24.6999Z" />
        <path d="M47.8794 3.198V28.987H51.0774V0.286999H39.3924L38.6133 22.017C38.5313 24.764 38.0804 26.117 35.4154 26.117V29.028H35.9484C40.3354 28.987 41.5653 26.404 41.7294 21.853L42.3854 3.198H47.8794Z"/>
        <path d="M54.2481 22.058C54.2481 26.404 56.4211 29.274 60.8081 29.274C65.2361 29.274 67.4091 26.404 67.4091 22.058V7.216C67.4091 2.829 65.2361 0 60.8081 0C56.4211 0 54.2481 2.829 54.2481 7.216V22.058ZM57.4051 7.052C57.4051 4.469 58.5121 2.911 60.8081 2.911C63.1451 2.911 64.2111 4.469 64.2111 7.052V22.222C64.2111 24.846 63.1451 26.363 60.8081 26.363C58.5121 26.363 57.4051 24.846 57.4051 22.222V7.052Z"/>
        <path d="M87.6907 32.923V26.158H85.5177V0.286999H73.9967L72.8897 21.976C72.8077 23.739 72.6027 25.051 71.6187 26.158H69.7737V32.923H72.8487V28.987H84.5747V32.923H87.6907ZM76.9487 3.198H82.2787V26.158H74.6937C75.5957 25.215 75.8827 23.985 76.0057 21.935L76.9487 3.198Z"/>
        <path d="M101.149 6.15V28.987H104.019V0.286999H100.452L95.8602 13.776L93.3182 21.689V0.286999H90.4892V28.987H93.8102L98.0332 15.744L101.149 6.15Z"/>
        <path d="M116.942 16.728V28.987H120.14V0.286999H113.744C109.234 0.286999 107.348 2.583 107.348 6.847V9.184C107.348 12.341 108.455 14.309 110.874 15.088C108.291 15.867 107.307 17.999 107.307 21.074V25.543C107.307 26.814 107.225 28.003 106.733 28.987H109.972C110.341 28.167 110.505 27.429 110.505 25.502V20.992C110.505 17.753 112.022 16.728 114.687 16.728H116.942ZM116.942 3.198V13.817H114.523C112.022 13.817 110.505 12.997 110.505 9.881V7.134C110.505 4.551 111.448 3.198 113.826 3.198H116.942Z"/>
    </symbol>

    <symbol id="arrow" viewBox="0 0 33 20">
        <path d="M28.7209 19.839L16.4536 7.57173L4.18632 19.839L0.400391 16.0532L16.4536 0L32.5068 16.0532L28.7209 19.839Z"/>
    </symbol>
</svg>